<svg viewBox="0 0 530.41 404.99" xmlns="http://www.w3.org/2000/svg"><path d="M13.63 357.19V347h36.61v10.22H37.78v38H26.09v-38zm55.79 38.02V373.5L50.59 347h13.93l10.71 17.5L86.15 347H100l-18.82 26.71v21.5zm34.51 0V347h19.95c11.34 0 16.52 8 16.52 16.1s-5.18 16-16.52 16h-8.26v16.11zm11.69-38V369h7.7c3.85 0 5.25-3.08 5.25-5.95s-1.4-5.88-5.25-5.88zm31.57 38V347h31.29v10.22h-19.6v9.24h17.22v10h-17.22V385h20.23v10.22zM187.86 347H207c13.93 0 21.91 10.5 21.91 24.22s-8 24-21.91 24h-19.14zm11.76 37.81H207c6.79 0 10.22-6.52 10.22-13.59S213.76 357.4 207 357.4h-7.35zm63.49-3.96c.14 2.59 1.89 4.69 5.95 4.69 3 0 5.95-1.33 5.95-4.34 0-.77 0-2.38-4.83-4l-5.68-1.89c-10.78-2.94-12.6-9.8-12.6-14.21 0-8.82 7.22-14.77 16.88-14.77s16.59 5.53 16.59 15.05h-11.69c0-2.59-1.47-4.48-5-4.48-3.15 0-5.11 1.54-5.11 3.85 0 .91.28 2.66 4.48 3.92l5.53 1.75c12.67 3.92 13.37 11.27 13.37 14.7 0 10.65-9.73 14.71-17.85 14.71-10.79 0-17.79-5.88-17.79-15zm42.07 14.36V373.5L286.34 347h13.93L311 364.47 321.91 347h13.86l-18.83 26.74v21.5zm42.56-14.36c.13 2.59 1.88 4.69 5.95 4.69 3 0 5.95-1.33 5.95-4.34 0-.77 0-2.38-4.83-4l-5.68-1.89c-10.78-2.94-12.6-9.8-12.6-14.21 0-8.82 7.21-14.77 16.88-14.77 9.52 0 16.59 5.53 16.59 15.05h-11.69c0-2.59-1.47-4.48-5-4.48-3.16 0-5.11 1.54-5.11 3.85 0 .91.28 2.66 4.48 3.92l5.53 1.75c12.67 3.92 13.37 11.27 13.37 14.7 0 10.65-9.73 14.71-17.85 14.71-10.79 0-17.79-5.88-17.79-15zm27.85-23.66V347h36.62v10.22h-12.46v38h-11.7v-38zm43.89 38.02V347h31.3v10.22h-19.6v9.24h17.22v10h-17.22V385h20.23v10.22zM500.13 347H510l5.88 48.24h-12l-2.94-26-9.73 20.38h-8.82l-9.81-20.38-3 26h-12l5.86-48.24h9.74l13.58 29.33z" fill="#321e41"/><path d="M273.2 8v285.71c-2.65.2-5.32.29-8 .29s-5.35-.09-8-.29V8a8 8 0 0 1 16 0zm35 18v259.48a109.3 109.3 0 0 1-16 5.26V26a8 8 0 0 1 16 0zm68.01 171a110.3 110.3 0 0 1-3.34 16H336.2a8 8 0 0 1-8-8V43a8 8 0 0 1 16 0v154zM200.2 43v162a8 8 0 0 1-8 8h-34.67a110.3 110.3 0 0 1-3.34-16h30V43a8 8 0 0 1 16 0zm36-17v264.22a108.3 108.3 0 0 1-16-5.6V26a8 8 0 0 1 16 0z" fill="#ff3464"/><g fill="#321e41"><path d="M200.2 71.71v19.05a110.68 110.68 0 0 1 20-11.38V62.14a126.72 126.72 0 0 0-20 9.57zm73-17.46v16a110.41 110.41 0 0 1 19 3v-16.4a128.92 128.92 0 0 0-19-2.6zm35 7.16v17.11a110.28 110.28 0 0 1 20 10.84V70.55a127.42 127.42 0 0 0-20-9.14zm-72-4.11v16.48a109.91 109.91 0 0 1 21-3.49v-16a127.27 127.27 0 0 0-21 3.01z"/><path d="M393.2 182a128 128 0 0 1-253.3 26.28c-.25-1.19-.48-2.38-.69-3.59a128.17 128.17 0 0 1 45-121.8v21.76a111.24 111.24 0 0 0-31 77.35 113 113 0 0 0 1 15A111.25 111.25 0 0 0 186 261.2a111.8 111.8 0 0 0 34.19 23.42 108.3 108.3 0 0 0 16 5.6 109.91 109.91 0 0 0 21 3.49c2.65.2 5.32.29 8 .29s5.35-.09 8-.29a110.41 110.41 0 0 0 19-3 109.3 109.3 0 0 0 16-5.26A112.48 112.48 0 0 0 372.87 213a110.3 110.3 0 0 0 3.34-16 113 113 0 0 0 1-15 111.29 111.29 0 0 0-32.8-79.2l-.2-.2V81.28A127.79 127.79 0 0 1 393.2 182z"/></g></svg>