<svg viewBox="0 0 530.41 404.99" xmlns="http://www.w3.org/2000/svg" xmlns:xlink="http://www.w3.org/1999/xlink"><linearGradient id="a" gradientUnits="userSpaceOnUse" x1="265.2" x2="265.2" y1="304"><stop offset="0" stop-color="#42275a"/><stop offset=".15" stop-color="#4b2f62"/><stop offset=".39" stop-color="#654578"/><stop offset=".69" stop-color="#8e699c"/><stop offset="1" stop-color="#be93c5"/></linearGradient><linearGradient id="b" x1="300.2" x2="300.2" xlink:href="#a" y2="18"/><linearGradient id="c" x1="358.7" x2="358.7" xlink:href="#a" y1="213" y2="35"/><linearGradient id="d" x1="169.7" x2="169.7" xlink:href="#a" y1="213" y2="35"/><linearGradient id="e" x1="228.2" x2="228.2" xlink:href="#a" y2="18"/><path d="M265.2 70a112 112 0 1 1-79.2 32.8A111.28 111.28 0 0 1 265.2 70m0-16a128 128 0 1 0 128 128 128 128 0 0 0-128-128z" fill="#42275a"/><g fill="none" stroke-linecap="round" stroke-linejoin="round" stroke-width="16"><path d="M265.2 8v288" stroke="url(#a)"/><path d="M300.2 26v270" stroke="url(#b)"/><path d="M336.2 43v162h45" stroke="url(#c)"/><path d="M192.2 43v162h-45" stroke="url(#d)"/><path d="M228.2 26v270" stroke="url(#e)"/></g><path d="M24.2 365.51V404h-9.64v-38.49H0v-8.81h38.76v8.81zM71.67 386v18H62v-17.84L47.16 356.7h10.53l9.22 19.79 9.44-19.79H86.5zm59.56-13.45q0 8.55-4 12.69t-13 4.13h-7.86V404h-9.7v-47.3h17.77q8 0 12.41 3.74t4.38 12.11zm-9.95.07c0-2.66-.73-4.59-2.2-5.77s-4.12-1.78-8-1.78h-4.82V381h3.93a24.65 24.65 0 0 0 7.33-.73 4.84 4.84 0 0 0 2.87-2.48 12.22 12.22 0 0 0 .89-5.17zM142.3 404v-47.3H173v8.51h-21.06v10.08h17.78v8.54h-17.78v11.35H173V404zm80.53-23.65q0 8.53-2.36 13.74a15 15 0 0 1-7.11 7.55Q208.62 404 200 404h-14.42v-47.3h14.28c5.59 0 10 .8 13.32 2.42a15.23 15.23 0 0 1 7.29 7.57q2.37 5.15 2.36 13.66zm-9.94-.07q0-6.18-1.22-9.18a7.71 7.71 0 0 0-4.12-4.29c-1.93-.86-4.8-1.3-8.61-1.3h-3.69v29.67h3.69c3.81 0 6.67-.44 8.6-1.31a7.89 7.89 0 0 0 4.12-4.4q1.23-3.07 1.23-9.19zm80.03 10.01q0 7.11-4.66 10.91T274.5 405a26.43 26.43 0 0 1-10.92-2.08 17.08 17.08 0 0 1-7.54-6.74l7.42-5.67a16.83 16.83 0 0 0 3.11 3.49 11.2 11.2 0 0 0 3.49 1.81 15.22 15.22 0 0 0 4.65.65 11.73 11.73 0 0 0 6.13-1.35 4.51 4.51 0 0 0 2.21-4.12 4.36 4.36 0 0 0-.77-2.63 6.17 6.17 0 0 0-2.31-1.83 30 30 0 0 0-5.33-1.76q-3.69-1-7-2a21.31 21.31 0 0 1-5.64-2.62 11.81 11.81 0 0 1-3.74-4 12.37 12.37 0 0 1-1.37-6.12q0-6.74 4.55-10.51t13-3.78q12.27 0 17.36 8.41l-7.34 5.74a12.24 12.24 0 0 0-4.38-4.3 12 12 0 0 0-5.78-1.3 10.81 10.81 0 0 0-5.45 1.21 4.09 4.09 0 0 0-2.1 3.81 3.82 3.82 0 0 0 2.19 3.51 31.78 31.78 0 0 0 7.62 2.44c2 .53 4 1.09 5.95 1.69a18.84 18.84 0 0 1 5.24 2.51 12 12 0 0 1 3.71 4.21 13.88 13.88 0 0 1 1.46 6.62zm31.43-4.29v18h-9.71v-17.84l-14.8-29.46h10.53l9.23 19.79 9.4-19.79h10.15zm57.86 4.29q0 7.11-4.66 10.91t-13.76 3.8a26.43 26.43 0 0 1-10.92-2.08 17.08 17.08 0 0 1-7.54-6.74l7.42-5.67a17.12 17.12 0 0 0 3.11 3.49 11.2 11.2 0 0 0 3.49 1.81 15.22 15.22 0 0 0 4.65.65 11.73 11.73 0 0 0 6.13-1.35 4.51 4.51 0 0 0 2.21-4.12 4.36 4.36 0 0 0-.77-2.63 6.26 6.26 0 0 0-2.31-1.83 30 30 0 0 0-5.33-1.76q-3.69-1-7-2a21.31 21.31 0 0 1-5.64-2.62 11.81 11.81 0 0 1-3.74-4 12.37 12.37 0 0 1-1.37-6.12q0-6.74 4.55-10.51t13-3.78q12.27 0 17.36 8.41l-7.34 5.74a12.24 12.24 0 0 0-4.38-4.3 12 12 0 0 0-5.78-1.3 10.81 10.81 0 0 0-5.45 1.21 4.09 4.09 0 0 0-2.1 3.81 3.82 3.82 0 0 0 2.19 3.51 31.78 31.78 0 0 0 7.62 2.44q3 .79 5.95 1.69a18.84 18.84 0 0 1 5.24 2.51 12 12 0 0 1 3.71 4.21 13.88 13.88 0 0 1 1.46 6.62zm33.01-24.78V404h-9.64v-38.49H391v-8.81h38.76v8.81zM440.2 404v-47.3h30.73v8.51h-21.09v10.08h17.77v8.54h-17.77v11.35h21.09V404zm80.88 0v-31.79L509.73 392h-5.57L493 372.21V404h-9.3v-47.3h11.11l12.34 22.45 12.44-22.45h10.87V404z" fill="#42275a"/></svg>